<mxfile host="app.diagrams.net" modified="2024-03-19T04:13:36.093Z" agent="Mozilla/5.0 (Macintosh; Intel Mac OS X 10_15_7) AppleWebKit/537.36 (KHTML, like Gecko) Chrome/122.0.0.0 Safari/537.36" etag="VIgFnqYUXt-oI2h6edFu" version="24.0.7" type="github">
  <diagram name="第 1 页" id="AzbfN3IA49LtA-kwNX3O">
    <mxGraphModel dx="2074" dy="3484" grid="1" gridSize="10" guides="1" tooltips="1" connect="1" arrows="1" fold="1" page="1" pageScale="1" pageWidth="827" pageHeight="1169" math="0" shadow="0">
      <root>
        <mxCell id="0" />
        <mxCell id="1" parent="0" />
        <mxCell id="hP2oWszfWkWVEPcqdL0g-2" style="edgeStyle=orthogonalEdgeStyle;rounded=0;orthogonalLoop=1;jettySize=auto;html=1;exitX=0.5;exitY=1;exitDx=0;exitDy=0;entryX=0.5;entryY=0;entryDx=0;entryDy=0;endArrow=none;endFill=0;fontSize=16;" parent="1" source="hP2oWszfWkWVEPcqdL0g-5" target="hP2oWszfWkWVEPcqdL0g-11" edge="1">
          <mxGeometry relative="1" as="geometry" />
        </mxCell>
        <mxCell id="hP2oWszfWkWVEPcqdL0g-3" style="edgeStyle=orthogonalEdgeStyle;rounded=0;orthogonalLoop=1;jettySize=auto;html=1;exitX=0.5;exitY=1;exitDx=0;exitDy=0;endArrow=none;endFill=0;fontSize=16;" parent="1" source="hP2oWszfWkWVEPcqdL0g-5" target="hP2oWszfWkWVEPcqdL0g-16" edge="1">
          <mxGeometry relative="1" as="geometry" />
        </mxCell>
        <mxCell id="hP2oWszfWkWVEPcqdL0g-4" style="edgeStyle=orthogonalEdgeStyle;rounded=0;orthogonalLoop=1;jettySize=auto;html=1;exitX=0.5;exitY=1;exitDx=0;exitDy=0;entryX=0.5;entryY=0;entryDx=0;entryDy=0;endArrow=none;endFill=0;fontSize=16;" parent="1" source="hP2oWszfWkWVEPcqdL0g-5" target="hP2oWszfWkWVEPcqdL0g-18" edge="1">
          <mxGeometry relative="1" as="geometry" />
        </mxCell>
        <mxCell id="hP2oWszfWkWVEPcqdL0g-5" value="&lt;font style=&quot;font-size: 16px;&quot;&gt;活动页面搭建平台&lt;/font&gt;" style="rounded=0;whiteSpace=wrap;html=1;fontSize=16;" parent="1" vertex="1">
          <mxGeometry x="545.5" y="-2050" width="160" height="50" as="geometry" />
        </mxCell>
        <mxCell id="hP2oWszfWkWVEPcqdL0g-7" style="edgeStyle=orthogonalEdgeStyle;rounded=0;orthogonalLoop=1;jettySize=auto;html=1;exitX=0.5;exitY=1;exitDx=0;exitDy=0;entryX=0.5;entryY=0;entryDx=0;entryDy=0;endArrow=none;endFill=0;fontSize=16;" parent="1" source="hP2oWszfWkWVEPcqdL0g-11" target="hP2oWszfWkWVEPcqdL0g-19" edge="1">
          <mxGeometry relative="1" as="geometry" />
        </mxCell>
        <mxCell id="hP2oWszfWkWVEPcqdL0g-8" style="edgeStyle=orthogonalEdgeStyle;rounded=0;orthogonalLoop=1;jettySize=auto;html=1;exitX=0.5;exitY=1;exitDx=0;exitDy=0;entryX=0.5;entryY=0;entryDx=0;entryDy=0;endArrow=none;endFill=0;fontSize=16;" parent="1" source="hP2oWszfWkWVEPcqdL0g-11" target="hP2oWszfWkWVEPcqdL0g-20" edge="1">
          <mxGeometry relative="1" as="geometry" />
        </mxCell>
        <mxCell id="hP2oWszfWkWVEPcqdL0g-9" style="edgeStyle=orthogonalEdgeStyle;rounded=0;orthogonalLoop=1;jettySize=auto;html=1;exitX=0.5;exitY=1;exitDx=0;exitDy=0;entryX=0.5;entryY=0;entryDx=0;entryDy=0;endArrow=none;endFill=0;fontSize=16;" parent="1" source="hP2oWszfWkWVEPcqdL0g-11" target="hP2oWszfWkWVEPcqdL0g-21" edge="1">
          <mxGeometry relative="1" as="geometry" />
        </mxCell>
        <mxCell id="hP2oWszfWkWVEPcqdL0g-11" value="用户模块" style="rounded=0;whiteSpace=wrap;html=1;fontSize=16;" parent="1" vertex="1">
          <mxGeometry x="563" y="-1890" width="125" height="40" as="geometry" />
        </mxCell>
        <mxCell id="hP2oWszfWkWVEPcqdL0g-12" style="edgeStyle=orthogonalEdgeStyle;rounded=0;orthogonalLoop=1;jettySize=auto;html=1;exitX=0.5;exitY=1;exitDx=0;exitDy=0;entryX=0.5;entryY=0;entryDx=0;entryDy=0;endArrow=none;endFill=0;fontSize=16;" parent="1" source="hP2oWszfWkWVEPcqdL0g-16" target="hP2oWszfWkWVEPcqdL0g-24" edge="1">
          <mxGeometry relative="1" as="geometry" />
        </mxCell>
        <mxCell id="hP2oWszfWkWVEPcqdL0g-13" style="edgeStyle=orthogonalEdgeStyle;rounded=0;orthogonalLoop=1;jettySize=auto;html=1;exitX=0.5;exitY=1;exitDx=0;exitDy=0;entryX=0.5;entryY=0;entryDx=0;entryDy=0;endArrow=none;endFill=0;fontSize=16;" parent="1" source="hP2oWszfWkWVEPcqdL0g-16" target="hP2oWszfWkWVEPcqdL0g-25" edge="1">
          <mxGeometry relative="1" as="geometry" />
        </mxCell>
        <mxCell id="hP2oWszfWkWVEPcqdL0g-14" style="edgeStyle=orthogonalEdgeStyle;rounded=0;orthogonalLoop=1;jettySize=auto;html=1;exitX=0.5;exitY=1;exitDx=0;exitDy=0;entryX=0.5;entryY=0;entryDx=0;entryDy=0;endArrow=none;endFill=0;fontSize=16;" parent="1" source="hP2oWszfWkWVEPcqdL0g-16" target="hP2oWszfWkWVEPcqdL0g-26" edge="1">
          <mxGeometry relative="1" as="geometry" />
        </mxCell>
        <mxCell id="hP2oWszfWkWVEPcqdL0g-16" value="后台管理模块" style="rounded=0;whiteSpace=wrap;html=1;fontSize=16;" parent="1" vertex="1">
          <mxGeometry x="864" y="-1890" width="125" height="40" as="geometry" />
        </mxCell>
        <mxCell id="hP2oWszfWkWVEPcqdL0g-17" style="edgeStyle=orthogonalEdgeStyle;rounded=0;orthogonalLoop=1;jettySize=auto;html=1;exitX=0.5;exitY=1;exitDx=0;exitDy=0;endArrow=none;endFill=0;fontSize=16;" parent="1" source="hP2oWszfWkWVEPcqdL0g-18" target="hP2oWszfWkWVEPcqdL0g-27" edge="1">
          <mxGeometry relative="1" as="geometry" />
        </mxCell>
        <mxCell id="ZtFctYNQM2N-w3IxaOla-14" style="edgeStyle=orthogonalEdgeStyle;rounded=0;orthogonalLoop=1;jettySize=auto;html=1;exitX=0.5;exitY=1;exitDx=0;exitDy=0;entryX=0.5;entryY=0;entryDx=0;entryDy=0;endArrow=none;endFill=0;fontSize=16;" parent="1" source="hP2oWszfWkWVEPcqdL0g-18" target="ZtFctYNQM2N-w3IxaOla-12" edge="1">
          <mxGeometry relative="1" as="geometry" />
        </mxCell>
        <mxCell id="ZtFctYNQM2N-w3IxaOla-15" style="edgeStyle=orthogonalEdgeStyle;rounded=0;orthogonalLoop=1;jettySize=auto;html=1;exitX=0.5;exitY=1;exitDx=0;exitDy=0;endArrow=none;endFill=0;fontSize=16;" parent="1" source="hP2oWszfWkWVEPcqdL0g-18" target="hP2oWszfWkWVEPcqdL0g-22" edge="1">
          <mxGeometry relative="1" as="geometry" />
        </mxCell>
        <mxCell id="hP2oWszfWkWVEPcqdL0g-18" value="平台公共模块" style="rounded=0;whiteSpace=wrap;html=1;fontSize=16;" parent="1" vertex="1">
          <mxGeometry x="235" y="-1890" width="125" height="40" as="geometry" />
        </mxCell>
        <mxCell id="hP2oWszfWkWVEPcqdL0g-19" value="数据源管理" style="rounded=0;whiteSpace=wrap;html=1;verticalAlign=middle;align=center;labelPosition=center;verticalLabelPosition=middle;textDirection=vertical-rl;fontSize=16;" parent="1" vertex="1">
          <mxGeometry x="544" y="-1770" width="35" height="120" as="geometry" />
        </mxCell>
        <mxCell id="hP2oWszfWkWVEPcqdL0g-20" value="活动页面管理" style="rounded=0;whiteSpace=wrap;html=1;verticalAlign=middle;align=center;labelPosition=center;verticalLabelPosition=middle;textDirection=vertical-rl;strokeWidth=1;fontSize=16;" parent="1" vertex="1">
          <mxGeometry x="608" y="-1770" width="35" height="120" as="geometry" />
        </mxCell>
        <mxCell id="hP2oWszfWkWVEPcqdL0g-21" value="模版库" style="rounded=0;whiteSpace=wrap;html=1;verticalAlign=middle;align=center;labelPosition=center;verticalLabelPosition=middle;textDirection=vertical-rl;spacing=0;fontSize=16;" parent="1" vertex="1">
          <mxGeometry x="672.5" y="-1770" width="33" height="120" as="geometry" />
        </mxCell>
        <mxCell id="hP2oWszfWkWVEPcqdL0g-22" value="活动页面设计" style="rounded=0;whiteSpace=wrap;html=1;verticalAlign=middle;align=center;labelPosition=center;verticalLabelPosition=middle;textDirection=vertical-rl;fontSize=16;" parent="1" vertex="1">
          <mxGeometry x="365" y="-1760" width="35" height="120" as="geometry" />
        </mxCell>
        <mxCell id="hP2oWszfWkWVEPcqdL0g-24" value="用户管理" style="rounded=0;whiteSpace=wrap;html=1;verticalAlign=middle;align=center;labelPosition=center;verticalLabelPosition=middle;textDirection=vertical-rl;spacing=0;fontSize=16;" parent="1" vertex="1">
          <mxGeometry x="840" y="-1770" width="33" height="120" as="geometry" />
        </mxCell>
        <mxCell id="hP2oWszfWkWVEPcqdL0g-25" value="物料组件管理" style="rounded=0;whiteSpace=wrap;html=1;verticalAlign=middle;align=center;labelPosition=center;verticalLabelPosition=middle;textDirection=vertical-rl;spacing=0;fontSize=16;" parent="1" vertex="1">
          <mxGeometry x="909" y="-1770" width="33" height="120" as="geometry" />
        </mxCell>
        <mxCell id="hP2oWszfWkWVEPcqdL0g-26" value="模版管理" style="rounded=0;whiteSpace=wrap;html=1;verticalAlign=middle;align=center;labelPosition=center;verticalLabelPosition=middle;textDirection=vertical-rl;spacing=0;fontSize=16;" parent="1" vertex="1">
          <mxGeometry x="973.5" y="-1770" width="33" height="120" as="geometry" />
        </mxCell>
        <mxCell id="hP2oWszfWkWVEPcqdL0g-27" value="Schema&lt;div style=&quot;font-size: 16px;&quot;&gt;生成器&lt;/div&gt;" style="rounded=0;whiteSpace=wrap;html=1;verticalAlign=middle;align=center;labelPosition=center;verticalLabelPosition=middle;textDirection=rtl;fontSize=16;" parent="1" vertex="1">
          <mxGeometry x="263.13" y="-1760" width="68.75" height="120" as="geometry" />
        </mxCell>
        <mxCell id="ZtFctYNQM2N-w3IxaOla-12" value="登录" style="rounded=0;whiteSpace=wrap;html=1;verticalAlign=middle;align=center;labelPosition=center;verticalLabelPosition=middle;textDirection=vertical-rl;fontSize=16;" parent="1" vertex="1">
          <mxGeometry x="200" y="-1760" width="35" height="120" as="geometry" />
        </mxCell>
      </root>
    </mxGraphModel>
  </diagram>
</mxfile>
